<svg width="56" height="56" viewBox="0 0 56 56" fill="none" xmlns="http://www.w3.org/2000/svg">
<path d="M50.4142 30.8162C50.4285 25.5106 48.8096 20.4541 45.7946 16.2148L48.5174 16.8956L56 9.41281L50.6624 7.78444L52.71 5.73694L50.3899 3.41677L48.2749 5.53164L46.5874 0L39.1167 7.47075L39.7503 10.1868C35.8743 7.44888 31.3936 5.93327 26.8474 5.63992V1.84494H23.5662V5.64014C17.6658 6.02197 11.8749 8.46125 7.37518 12.9609C-2.45839 22.7945 -2.45839 38.7949 7.37518 48.6286C7.55325 48.8066 7.73426 48.9806 7.91659 49.1527L4.88307 51.8254V55.9658H8.16432V53.3074L10.4768 51.2701C14.7288 54.3422 19.8169 56 25.1612 56C25.1842 56 25.2075 56 25.2304 55.9999C30.5683 55.9857 35.6546 54.3177 39.9062 51.2433L42.2492 53.3075V55.9659H45.5304V51.8255L42.466 49.1256C42.6498 48.9522 42.8322 48.7769 43.0116 48.5974C47.7673 43.8417 50.3962 37.5269 50.4142 30.8162V30.8162ZM45.0435 6.18439L46.159 9.84112L49.8157 10.9566L47.5108 13.2616L43.6094 12.2862L42.7265 8.50139L45.0435 6.18439ZM25.2217 52.7186C25.2012 52.7187 25.1819 52.7188 25.1614 52.7188C19.3213 52.7188 13.8304 50.4433 9.69536 46.3084C1.14125 37.7542 1.14125 23.8353 9.69536 15.2811C17.859 7.11758 30.9078 6.74537 39.5175 14.1629L37.1508 16.5295C33.8117 13.7261 29.6299 12.1983 25.2084 12.1983C20.2341 12.1983 15.5622 14.1306 12.0536 17.6393C4.79995 24.893 4.79995 36.6956 12.0536 43.9492C15.5589 47.4545 20.2124 49.383 25.1624 49.383C25.1794 49.383 25.1966 49.3829 25.2136 49.3829C30.1636 49.3697 34.8228 47.4293 38.3331 43.9189C41.8434 40.4086 43.7838 35.7494 43.7972 30.7995C43.809 26.3804 42.2829 22.1957 39.4714 18.8495L41.8388 16.482C45.2784 20.4665 47.1472 25.4937 47.1329 30.8075C47.1172 36.645 44.8296 42.139 40.6914 46.2773C36.5532 50.4153 31.0592 52.703 25.2217 52.7186V52.7186ZM33.9438 30.7907C33.9438 35.6094 30.0236 39.5295 25.2049 39.5295C20.3863 39.5295 16.4661 35.6093 16.4661 30.7907C16.4661 25.9721 20.3863 22.052 25.2049 22.052C30.0236 22.052 33.9438 25.9721 33.9438 30.7907ZM32.4638 21.2167C30.4455 19.6827 27.9299 18.7706 25.2049 18.7706C18.577 18.7706 13.1849 24.1628 13.1849 30.7906C13.1849 37.4186 18.577 42.8107 25.2049 42.8107C31.8329 42.8107 37.225 37.4185 37.225 30.7906C37.225 28.0683 36.3147 25.5548 34.7834 23.5374L37.1406 21.1801C39.3365 23.896 40.5254 27.2521 40.5159 30.7906C40.505 34.8673 38.9058 38.7057 36.0129 41.5986C33.1201 44.4915 29.2817 46.0906 25.2047 46.1016C25.1905 46.1016 25.1768 46.1017 25.1626 46.1017C21.0893 46.1017 17.259 44.514 14.3738 41.6289C8.39948 35.6546 8.39959 25.9337 14.3738 19.9594C17.2627 17.0705 21.1105 15.4794 25.2086 15.4794C28.7524 15.4794 32.1086 16.6702 34.82 18.8603L32.4638 21.2167Z" fill="white"/>
</svg>
