<svg width="56" height="56" viewBox="0 0 56 56" fill="none" xmlns="http://www.w3.org/2000/svg">
<path d="M12.6875 47.6815V47.1603H15.9418L18.5032 39.8428H26.2184L28.7212 32.5258H41.0169V27.187H45.3864V23.9057H41.0169V18.51H21.1277V16.5421C24.0894 15.8269 26.2966 13.1562 26.2966 9.97791V0H12.6777V9.97791C12.6777 13.1562 14.8848 15.8269 17.8465 16.5421V18.51H6.11774V20.6992H0V30.393H6.11774V32.5258H9.40668L4.28357 47.1603H9.40625V47.6815C9.40625 52.2684 13.1378 56 17.7247 56H56V52.7188H17.7247C14.9472 52.7188 12.6875 50.459 12.6875 47.6815V47.6815ZM23.0153 3.28125V5.94257H15.9589V3.28125H23.0153ZM15.9589 9.97791V9.22382H23.0153V9.97791C23.0153 11.8928 21.4576 13.4506 19.5427 13.4506H19.4316C17.5167 13.4506 15.9589 11.8928 15.9589 9.97791ZM23.8728 36.5616H19.6516L21.0645 32.5258H25.2537L23.8728 36.5616ZM37.7357 29.2446H34.3121V21.7913H37.7357V29.2446ZM3.28125 27.1118V23.9805H6.11774V27.1118H3.28125ZM9.39899 29.2446V21.7913H31.0309V29.2446H9.39899ZM12.8828 32.5258H17.588L13.6138 43.879H8.90894L12.8828 32.5258Z" fill="white"/>
</svg>
