<svg width="56" height="56" viewBox="0 0 56 56" fill="none" xmlns="http://www.w3.org/2000/svg">
<path d="M46.4874 33.3363C46.7557 32.6993 46.9044 31.9995 46.9044 31.2659V30.2635H49.8519V18.9838C49.8519 16.61 48.457 14.5563 46.4438 13.598L41.2468 0H14.5345L9.33746 13.598C7.32428 14.5563 5.92932 16.61 5.92932 18.9838V30.2635H8.87689V31.2659C8.87689 31.9995 9.02557 32.6993 9.29388 33.3363H0V43.4373H10.2975L24.239 50.4475L13.1972 56H20.501L27.8906 52.2838L35.2803 56H42.5836L31.5423 50.4475L45.4838 43.4373H56V33.3363H46.4874ZM16.7933 3.28125H38.9879L42.7114 13.0225H13.0703L16.7933 3.28125ZM9.21057 26.9823V18.9838C9.21057 17.506 10.4128 16.3037 11.8907 16.3037H43.8901C45.3684 16.3037 46.5707 17.506 46.5707 18.9838V26.9823H34.6061V20.1523H21.1752V26.9823H9.21057ZM43.6231 30.2635V31.2659C43.6231 32.4075 42.6943 33.3363 41.5527 33.3363C40.4115 33.3363 39.4827 32.4075 39.4827 31.2659V30.2635H43.6231ZM36.2014 30.2635V31.2659C36.2014 31.9995 36.3501 32.6993 36.6184 33.3363H19.1628C19.4312 32.6993 19.5798 31.9995 19.5798 31.2659V30.2635H36.2014ZM24.4564 26.9823V23.4336H31.3248V26.9823H24.4564ZM16.2986 30.2635V31.2659C16.2986 32.4075 15.3698 33.3363 14.2286 33.3363C13.087 33.3363 12.1581 32.4075 12.1581 31.2659V30.2635H16.2986ZM27.8906 48.6112L17.6013 43.4368H38.18L27.8906 48.6112ZM52.7188 40.1556H3.28125V36.6171H52.7188V40.1556Z" fill="white"/>
</svg>
